<svg xmlns="http://www.w3.org/2000/svg" version="1.1" xmlns:xlink="http://www.w3.org/1999/xlink" xmlns:svgjs="http://svgjs.dev/svgjs" width="2000" height="1500" viewBox="0 0 2000 1500"><rect width="2000" height="1500" fill="#000000"></rect><g transform="matrix(0.75,0,0,0.75,249.090909090909,625.6841615014891)"><svg viewBox="0 0 396 66" data-background-color="#000000" preserveAspectRatio="xMidYMid meet" height="333" width="2000" xmlns="http://www.w3.org/2000/svg" xmlns:xlink="http://www.w3.org/1999/xlink"><g id="tight-bounds" transform="matrix(1,0,0,1,0.2400000000000091,-0.14776640279592357)"><svg viewBox="0 0 395.52 66.29553280559182" height="66.29553280559182" width="395.52"><g><svg viewBox="0 0 495.9708905288715 83.13272260233462" height="66.29553280559182" width="395.52"><g transform="matrix(1,0,0,1,100.45089052887158,4.887139511284047)"><svg viewBox="0 0 395.5199999999999 73.35844357976653" height="73.35844357976653" width="395.5199999999999"><g id="textblocktransform"><svg viewBox="0 0 395.5199999999999 73.35844357976653" height="73.35844357976653" width="395.5199999999999" id="textblock"><g><svg viewBox="0 0 395.5199999999999 73.35844357976653" height="73.35844357976653" width="395.5199999999999"><g transform="matrix(1,0,0,1,0,0)"><svg width="395.5199999999999" viewBox="4.3 -35 192.73999999999998 35.75" height="73.35844357976653" data-palette-color="#f7f7f7"><path d="M9.15 0L4.3 0 4.3-34.65 25.2-34.65 25.2-30.5 9.15-30.5 9.15-20.05 23.4-20.05 23.4-15.95 9.15-15.95 9.15 0ZM36-4.2L52-4.2 52 0 31.15 0 31.15-34.65 36-34.65 36-4.2ZM57.09 0L57.09-34.65 61.95-34.65 61.95 0 57.09 0ZM96.79 0L91.34 0Q90.59-1.5 89.54-3.33 88.49-5.15 87.24-7.13 85.99-9.1 84.64-11.08 83.29-13.05 82.04-14.8L82.04-14.8Q80.79-13.05 79.44-11.08 78.09-9.1 76.87-7.13 75.64-5.15 74.57-3.33 73.49-1.5 72.74 0L72.74 0 67.39 0Q69.64-4.4 72.62-8.95 75.59-13.5 78.94-18.3L78.94-18.3 67.84-34.65 73.44-34.65 81.99-21.75 90.44-34.65 95.99-34.65 85.09-18.5Q88.49-13.65 91.49-9.05 94.49-4.45 96.79 0L96.79 0ZM123.89-20.2L123.89-34.65 128.74-34.65 128.74 0 123.89 0 123.89-16 106.94-16 106.94 0 102.09 0 102.09-34.65 106.94-34.65 106.94-20.2 123.89-20.2ZM150.24 0.75L150.24 0.75Q146.84 0.75 144.34-0.3 141.84-1.35 140.24-3.18 138.64-5 137.86-7.5 137.09-10 137.09-12.9L137.09-12.9 137.09-34.65 141.94-34.65 141.94-13.45Q141.94-8.25 144.24-5.9 146.54-3.55 150.24-3.55L150.24-3.55Q152.09-3.55 153.61-4.13 155.14-4.7 156.24-5.9 157.34-7.1 157.94-8.97 158.54-10.85 158.54-13.45L158.54-13.45 158.54-34.65 163.39-34.65 163.39-12.9Q163.39-10 162.61-7.5 161.84-5 160.21-3.18 158.59-1.35 156.11-0.3 153.64 0.75 150.24 0.75ZM181.09 0.3L181.09 0.3Q180.04 0.3 178.81 0.25 177.59 0.2 176.36 0.1 175.14 0 173.94-0.15 172.74-0.3 171.74-0.55L171.74-0.55 171.74-34.15Q172.74-34.4 173.94-34.55 175.14-34.7 176.36-34.8 177.59-34.9 178.79-34.95 179.99-35 181.04-35L181.04-35Q184.04-35 186.66-34.55 189.29-34.1 191.21-33.02 193.14-31.95 194.24-30.2 195.34-28.45 195.34-25.9L195.34-25.9Q195.34-23.05 193.99-21.23 192.64-19.4 190.39-18.5L190.39-18.5Q193.44-17.6 195.24-15.65 197.04-13.7 197.04-10.15L197.04-10.15Q197.04-4.95 193.21-2.33 189.39 0.3 181.09 0.3ZM182.79-16.15L176.54-16.15 176.54-3.95Q177.09-3.9 177.84-3.85L177.84-3.85Q178.49-3.8 179.36-3.78 180.24-3.75 181.39-3.75L181.39-3.75Q183.54-3.75 185.46-4.03 187.39-4.3 188.84-5 190.29-5.7 191.16-6.95 192.04-8.2 192.04-10.1L192.04-10.1Q192.04-11.8 191.39-12.98 190.74-14.15 189.51-14.85 188.29-15.55 186.59-15.85 184.89-16.15 182.79-16.15L182.79-16.15ZM176.54-30.75L176.54-20.05 181.64-20.05Q183.44-20.05 185.04-20.3 186.64-20.55 187.81-21.2 188.99-21.85 189.66-22.9 190.34-23.95 190.34-25.55L190.34-25.55Q190.34-27.05 189.64-28.08 188.94-29.1 187.71-29.73 186.49-30.35 184.84-30.65 183.19-30.95 181.34-30.95L181.34-30.95Q179.49-30.95 178.44-30.9 177.39-30.85 176.54-30.75L176.54-30.75Z" opacity="1" transform="matrix(1,0,0,1,0,0)" fill="#f7f7f7" class="wordmark-text-0" data-fill-palette-color="primary" id="text-0"></path></svg></g></svg></g></svg></g></svg></g><g><svg viewBox="0 0 83.13272260233462 83.13272260233462" height="83.13272260233462" width="83.13272260233462"><g><svg xmlns="http://www.w3.org/2000/svg" xmlns:xlink="http://www.w3.org/1999/xlink" version="1.0" x="0" y="0" viewBox="20 20 60 60" enable-background="new 0 0 100 100" xml:space="preserve" height="83.13272260233462" width="83.13272260233462" class="icon-icon-0" data-fill-palette-color="accent" id="icon-0"><path d="M20 26.667c3.682 0 6.667 2.988 6.667 6.667v30C26.667 72.539 34.128 80 43.333 80 52.539 80 60 72.539 60 63.334V40c0-1.842 1.491-3.333 3.333-3.333 1.843 0 3.334 1.491 3.334 3.333v16.666C66.667 64.023 72.637 70 80 70v-6.666c-3.682 0-6.667-2.988-6.667-6.668V40c0-5.524-4.479-10-10-10-5.521 0-10 4.476-10 10v23.334c0 5.523-4.479 10-10 10-5.521 0-10-4.477-10-10v-30C33.333 25.973 27.363 20 20 20V26.667z" fill="#ffd300" data-fill-palette-color="accent"></path></svg></g></svg></g></svg></g><defs></defs></svg><rect width="395.52" height="66.29553280559182" fill="none" stroke="none" visibility="hidden"></rect></g></svg></g></svg>