<?xml version="1.0" standalone="no"?>
<!DOCTYPE svg PUBLIC "-//W3C//DTD SVG 20010904//EN"
 "http://www.w3.org/TR/2001/REC-SVG-20010904/DTD/svg10.dtd">
<svg version="1.0" xmlns="http://www.w3.org/2000/svg"
 width="128.000000pt" height="128.000000pt" viewBox="0 0 128.000000 128.000000"
 preserveAspectRatio="xMidYMid meet">
<metadata>
Created by potrace 1.14, written by Peter Selinger 2001-2017
</metadata>
<g transform="translate(0.000000,128.000000) scale(0.100000,-0.100000)"
fill="#000000" stroke="none">
<path d="M130 1095 c0 -44 4 -57 18 -61 93 -30 93 -31 95 -392 2 -291 3 -309
24 -354 45 -99 136 -158 251 -166 66 -4 78 -2 137 27 66 33 107 75 139 143 22
49 24 81 25 331 1 189 3 209 20 226 20 20 65 18 79 -3 4 -6 9 -97 12 -202 l5
-191 30 -49 c34 -54 101 -101 158 -111 l37 -6 0 57 c0 56 0 56 -38 71 -65 26
-72 49 -73 246 0 144 -3 181 -18 214 -47 106 -181 138 -266 64 -57 -51 -62
-78 -63 -337 -1 -263 -5 -280 -75 -336 -33 -26 -46 -30 -97 -30 -51 0 -65 5
-97 30 -73 58 -75 66 -76 412 l-2 307 -27 47 c-41 69 -114 118 -174 118 -22 0
-24 -4 -24 -55z"/>
</g>
</svg>
